<svg xmlns="http://www.w3.org/2000/svg" xmlns:xlink="http://www.w3.org/1999/xlink" version="1.1" viewBox="0 0 92 92" >
	<g transform="matrix(1 0 0 1 46.08 46.06)">
		<g transform="matrix(1.02 0 0 1.02 0 0)"  >
			<path style="stroke: none; stroke-width: 1; stroke-dasharray: none; stroke-linecap: butt; stroke-dashoffset: 0; stroke-linejoin: miter; stroke-miterlimit: 4; fill: rgb(0,0,0); fill-rule: nonzero; opacity: 1;"  transform=" translate(-100.33, -100.19)" d="M 115.182 106.648 c -2.7 0 -5.2 -1 -7.1 -2.9 c -0.8 -0.8 -0.8 -2 0 -2.8 c 0.8 -0.8 2 -0.8 2.8 0 c 2.3 2.3 6.2 2.3 8.5 0 l 19.8 -19.8 c 2.3 -2.3 2.3 -6.1 0 -8.5 l -11.3 -11.3 c -2.3 -2.3 -6.1 -2.3 -8.5 0 l -19.8 19.7 c -2.3 2.3 -2.3 6.1 0 8.5 c 0.8 0.8 0.8 2 0 2.8 c -0.8 0.8 -2 0.8 -2.8 0 c -3.9 -3.9 -3.9 -10.2 0 -14.1 l 19.8 -19.8 c 3.9 -3.9 10.3 -3.9 14.2 0 l 11.3 11.3 c 3.9 3.9 3.9 10.2 0 14.1 l -19.8 19.9 c -1.9 1.9 -4.4 2.9 -7.1 2.9 z M 76.982 144.848 c -2.6 0 -5.1 -1 -7.1 -2.9 l -11.3 -11.4 c -3.9 -3.8 -3.9 -10.2 0 -14.1 l 19.8 -19.8 c 3.8 -3.8 10.4 -3.8 14.1 0 c 0.8 0.8 0.8 2 0 2.8 c -0.8 0.8 -2 0.8 -2.8 0 c -2.3 -2.3 -6.2 -2.3 -8.5 0 l -19.7 19.8 c -2.3 2.3 -2.3 6.1 0 8.5 l 11.3 11.3 c 2.3 2.3 6.1 2.3 8.5 0 l 19.8 -19.8 c 2.3 -2.3 2.3 -6.1 0 -8.5 c -0.8 -0.8 -0.8 -2 0 -2.8 c 0.8 -0.8 2 -0.8 2.8 0 c 3.9 3.9 3.9 10.2 0 14.1 l -19.8 19.9 c -2 1.9 -4.5 2.9 -7.1 2.9 z" stroke-linecap="round" />
		</g>
		<g transform="matrix(1.02 0 0 1.02 -0.81 0.62)"  >
			<path style="stroke: none; stroke-width: 1; stroke-dasharray: none; stroke-linecap: butt; stroke-dashoffset: 0; stroke-linejoin: miter; stroke-miterlimit: 4; fill: rgb(0,0,0); fill-rule: nonzero; opacity: 1;"  transform=" translate(-99.63, -100.9)" d="M 76.982 125.548 c -0.5 0 -1 -0.2 -1.4 -0.6 c -0.8 -0.8 -0.8 -2 0 -2.8 l 45.3 -45.3 c 0.8 -0.8 2 -0.8 2.8 0 c 0.8 0.8 0.8 2 0 2.8 l -45.3 45.3 c -0.4 0.4 -0.9 0.6 -1.4 0.6 z" stroke-linecap="round" />
		</g>
	</g>
</svg>